<svg width="16" height="20" viewBox="0 0 16 20" fill="none" xmlns="http://www.w3.org/2000/svg">
<path d="M7 0C6.44772 0 6 0.447715 6 1H1C0.447715 1 0 1.44772 0 2C0 2.55228 0.447715 3 1 3H15C15.5523 3 16 2.55228 16 2C16 1.44772 15.5523 1 15 1H10C10 0.447715 9.55229 0 9 0H7Z" fill="#F56565"/>
<path fill-rule="evenodd" clip-rule="evenodd" d="M2.06889 5C1.49042 5 1.03262 5.48934 1.0711 6.06652L1.93777 19.0665C1.97279 19.5918 2.40909 20 2.93555 20H13.0644C13.5909 20 14.0272 19.5918 14.0622 19.0665L14.9289 6.06652C14.9674 5.48934 14.5096 5 13.9311 5H2.06889ZM8.99999 8C8.99999 7.44772 8.55228 7 7.99999 7C7.44771 7 6.99999 7.44772 6.99999 8V17C6.99999 17.5523 7.44771 18 7.99999 18C8.55228 18 8.99999 17.5523 8.99999 17V8ZM11.5 7C12.0523 7 12.5 7.44772 12.5 8V14C12.5 14.5523 12.0523 15 11.5 15C10.9477 15 10.5 14.5523 10.5 14V8C10.5 7.44772 10.9477 7 11.5 7ZM5.49999 8C5.49999 7.44772 5.05228 7 4.49999 7C3.94771 7 3.49999 7.44772 3.49999 8V14C3.49999 14.5523 3.94771 15 4.49999 15C5.05228 15 5.49999 14.5523 5.49999 14V8Z" fill="#F56565"/>
</svg>
