<svg width="14" height="14" viewBox="0 0 14 14" fill="none" xmlns="http://www.w3.org/2000/svg">
<g clip-path="url(#clip0_7_38)">
<path d="M4.58438 13.9999C5.87238 13.9999 6.91772 12.9546 6.91772 11.6666V9.33327H4.58438C3.29639 9.33327 2.25105 10.3786 2.25105 11.6666C2.25105 12.9546 3.29639 13.9999 4.58438 13.9999Z" fill="#5ECB89"/>
<path d="M2.25105 7.00006C2.25105 5.71206 3.29639 4.66673 4.58438 4.66673H6.91772V9.33339H4.58438C3.29639 9.33339 2.25105 8.28806 2.25105 7.00006Z" fill="#9761F6"/>
<path d="M2.25077 2.33338C2.25077 1.04538 3.2961 4.57764e-05 4.5841 4.57764e-05H6.91743V4.66671H4.5841C3.2961 4.66671 2.25077 3.62138 2.25077 2.33338Z" fill="#E05A33"/>
<path d="M6.91772 7.24792e-05H9.25106C10.5391 7.24792e-05 11.5844 1.04541 11.5844 2.33341C11.5844 3.62141 10.5391 4.66674 9.25106 4.66674H6.91772V7.24792e-05Z" fill="#EE7A69"/>
<path d="M11.5844 7.00006C11.5844 8.28806 10.5391 9.33339 9.25106 9.33339C7.96306 9.33339 6.91772 8.28806 6.91772 7.00006C6.91772 5.71206 7.96306 4.66673 9.25106 4.66673C10.5391 4.66673 11.5844 5.71206 11.5844 7.00006Z" fill="#56BAF8"/>
</g>
<defs>
<clipPath id="clip0_7_38">
<rect width="9.3352" height="14" fill="white" transform="translate(2.25)"/>
</clipPath>
</defs>
</svg>
